<?xml version="1.0" encoding="UTF-8" standalone="no"?>
<!DOCTYPE svg PUBLIC "-//W3C//DTD SVG 1.1//EN"
 "http://www.w3.org/Graphics/SVG/1.1/DTD/svg11.dtd">
<!-- Generated by graphviz version 2.43.0 (0)
 -->
<!-- Title: Tree Pages: 1 -->
<svg width="847pt" height="581pt"
 viewBox="0.00 0.00 847.00 581.00" xmlns="http://www.w3.org/2000/svg" xmlns:xlink="http://www.w3.org/1999/xlink">
<g id="graph0" class="graph" transform="scale(1 1) rotate(0) translate(4 577)">
<title>Tree</title>
<polygon fill="white" stroke="transparent" points="-4,4 -4,-577 843,-577 843,4 -4,4"/>
<!-- 0 -->
<g id="node1" class="node">
<title>0</title>
<polygon fill="#f5ceb3" stroke="black" points="581,-573 438,-573 438,-505 581,-505 581,-573"/>
<text text-anchor="middle" x="509.5" y="-557.8" font-family="Helvetica,sans-Serif" font-size="14.00">Glucose &lt;= 144.5</text>
<text text-anchor="middle" x="509.5" y="-542.8" font-family="Helvetica,sans-Serif" font-size="14.00">squared_error = 0.23</text>
<text text-anchor="middle" x="509.5" y="-527.8" font-family="Helvetica,sans-Serif" font-size="14.00">samples = 576</text>
<text text-anchor="middle" x="509.5" y="-512.8" font-family="Helvetica,sans-Serif" font-size="14.00">value = 0.358</text>
</g>
<!-- 1 -->
<g id="node2" class="node">
<title>1</title>
<polygon fill="#f8decc" stroke="black" points="501,-469 350,-469 350,-401 501,-401 501,-469"/>
<text text-anchor="middle" x="425.5" y="-453.8" font-family="Helvetica,sans-Serif" font-size="14.00">Age &lt;= 29.5</text>
<text text-anchor="middle" x="425.5" y="-438.8" font-family="Helvetica,sans-Serif" font-size="14.00">squared_error = 0.186</text>
<text text-anchor="middle" x="425.5" y="-423.8" font-family="Helvetica,sans-Serif" font-size="14.00">samples = 445</text>
<text text-anchor="middle" x="425.5" y="-408.8" font-family="Helvetica,sans-Serif" font-size="14.00">value = 0.247</text>
</g>
<!-- 0&#45;&gt;1 -->
<g id="edge1" class="edge">
<title>0&#45;&gt;1</title>
<path fill="none" stroke="black" d="M482.23,-504.88C474.97,-496.07 467.03,-486.43 459.46,-477.24"/>
<polygon fill="black" stroke="black" points="461.98,-474.79 452.92,-469.3 456.58,-479.24 461.98,-474.79"/>
<text text-anchor="middle" x="450.51" y="-490.48" font-family="Helvetica,sans-Serif" font-size="14.00">True</text>
</g>
<!-- 14 -->
<g id="node15" class="node">
<title>14</title>
<polygon fill="#ea985e" stroke="black" points="670,-469 519,-469 519,-401 670,-401 670,-469"/>
<text text-anchor="middle" x="594.5" y="-453.8" font-family="Helvetica,sans-Serif" font-size="14.00">Glucose &lt;= 166.5</text>
<text text-anchor="middle" x="594.5" y="-438.8" font-family="Helvetica,sans-Serif" font-size="14.00">squared_error = 0.196</text>
<text text-anchor="middle" x="594.5" y="-423.8" font-family="Helvetica,sans-Serif" font-size="14.00">samples = 131</text>
<text text-anchor="middle" x="594.5" y="-408.8" font-family="Helvetica,sans-Serif" font-size="14.00">value = 0.733</text>
</g>
<!-- 0&#45;&gt;14 -->
<g id="edge14" class="edge">
<title>0&#45;&gt;14</title>
<path fill="none" stroke="black" d="M537.1,-504.88C544.45,-496.07 552.47,-486.43 560.14,-477.24"/>
<polygon fill="black" stroke="black" points="563.04,-479.22 566.75,-469.3 557.66,-474.74 563.04,-479.22"/>
<text text-anchor="middle" x="569.01" y="-490.5" font-family="Helvetica,sans-Serif" font-size="14.00">False</text>
</g>
<!-- 2 -->
<g id="node3" class="node">
<title>2</title>
<polygon fill="#fcefe6" stroke="black" points="331.5,-365 149.5,-365 149.5,-297 331.5,-297 331.5,-365"/>
<text text-anchor="middle" x="240.5" y="-349.8" font-family="Helvetica,sans-Serif" font-size="14.00"> Body mass index &lt;= 27.85</text>
<text text-anchor="middle" x="240.5" y="-334.8" font-family="Helvetica,sans-Serif" font-size="14.00">squared_error = 0.113</text>
<text text-anchor="middle" x="240.5" y="-319.8" font-family="Helvetica,sans-Serif" font-size="14.00">samples = 262</text>
<text text-anchor="middle" x="240.5" y="-304.8" font-family="Helvetica,sans-Serif" font-size="14.00">value = 0.13</text>
</g>
<!-- 1&#45;&gt;2 -->
<g id="edge2" class="edge">
<title>1&#45;&gt;2</title>
<path fill="none" stroke="black" d="M365.44,-400.88C347.57,-391.04 327.86,-380.17 309.48,-370.03"/>
<polygon fill="black" stroke="black" points="311.03,-366.89 300.58,-365.12 307.65,-373.02 311.03,-366.89"/>
</g>
<!-- 9 -->
<g id="node10" class="node">
<title>9</title>
<polygon fill="#f3c6a6" stroke="black" points="501,-365 350,-365 350,-297 501,-297 501,-365"/>
<text text-anchor="middle" x="425.5" y="-349.8" font-family="Helvetica,sans-Serif" font-size="14.00">Glucose &lt;= 107.5</text>
<text text-anchor="middle" x="425.5" y="-334.8" font-family="Helvetica,sans-Serif" font-size="14.00">squared_error = 0.243</text>
<text text-anchor="middle" x="425.5" y="-319.8" font-family="Helvetica,sans-Serif" font-size="14.00">samples = 183</text>
<text text-anchor="middle" x="425.5" y="-304.8" font-family="Helvetica,sans-Serif" font-size="14.00">value = 0.415</text>
</g>
<!-- 1&#45;&gt;9 -->
<g id="edge9" class="edge">
<title>1&#45;&gt;9</title>
<path fill="none" stroke="black" d="M425.5,-400.88C425.5,-392.78 425.5,-383.98 425.5,-375.47"/>
<polygon fill="black" stroke="black" points="429,-375.3 425.5,-365.3 422,-375.3 429,-375.3"/>
</g>
<!-- 3 -->
<g id="node4" class="node">
<title>3</title>
<polygon fill="#ffffff" stroke="black" points="151,-253.5 0,-253.5 0,-200.5 151,-200.5 151,-253.5"/>
<text text-anchor="middle" x="75.5" y="-238.3" font-family="Helvetica,sans-Serif" font-size="14.00">squared_error = 0.021</text>
<text text-anchor="middle" x="75.5" y="-223.3" font-family="Helvetica,sans-Serif" font-size="14.00">samples = 93</text>
<text text-anchor="middle" x="75.5" y="-208.3" font-family="Helvetica,sans-Serif" font-size="14.00">value = 0.022</text>
</g>
<!-- 2&#45;&gt;3 -->
<g id="edge3" class="edge">
<title>2&#45;&gt;3</title>
<path fill="none" stroke="black" d="M186.93,-296.88C167.18,-284.68 144.9,-270.9 125.48,-258.9"/>
<polygon fill="black" stroke="black" points="127.13,-255.8 116.78,-253.52 123.45,-261.76 127.13,-255.8"/>
</g>
<!-- 4 -->
<g id="node5" class="node">
<title>4</title>
<polygon fill="#fae7d9" stroke="black" points="320,-261 169,-261 169,-193 320,-193 320,-261"/>
<text text-anchor="middle" x="244.5" y="-245.8" font-family="Helvetica,sans-Serif" font-size="14.00">Glucose &lt;= 118.5</text>
<text text-anchor="middle" x="244.5" y="-230.8" font-family="Helvetica,sans-Serif" font-size="14.00">squared_error = 0.153</text>
<text text-anchor="middle" x="244.5" y="-215.8" font-family="Helvetica,sans-Serif" font-size="14.00">samples = 169</text>
<text text-anchor="middle" x="244.5" y="-200.8" font-family="Helvetica,sans-Serif" font-size="14.00">value = 0.189</text>
</g>
<!-- 2&#45;&gt;4 -->
<g id="edge4" class="edge">
<title>2&#45;&gt;4</title>
<path fill="none" stroke="black" d="M241.8,-296.88C242.12,-288.78 242.46,-279.98 242.8,-271.47"/>
<polygon fill="black" stroke="black" points="246.3,-271.43 243.19,-261.3 239.3,-271.15 246.3,-271.43"/>
</g>
<!-- 5 -->
<g id="node6" class="node">
<title>5</title>
<polygon fill="#fcf0e7" stroke="black" points="250,-157 89,-157 89,-89 250,-89 250,-157"/>
<text text-anchor="middle" x="169.5" y="-141.8" font-family="Helvetica,sans-Serif" font-size="14.00">Skin_Thickness &lt;= 27.5</text>
<text text-anchor="middle" x="169.5" y="-126.8" font-family="Helvetica,sans-Serif" font-size="14.00">squared_error = 0.112</text>
<text text-anchor="middle" x="169.5" y="-111.8" font-family="Helvetica,sans-Serif" font-size="14.00">samples = 117</text>
<text text-anchor="middle" x="169.5" y="-96.8" font-family="Helvetica,sans-Serif" font-size="14.00">value = 0.128</text>
</g>
<!-- 4&#45;&gt;5 -->
<g id="edge5" class="edge">
<title>4&#45;&gt;5</title>
<path fill="none" stroke="black" d="M220.15,-192.88C213.73,-184.15 206.72,-174.62 200.02,-165.51"/>
<polygon fill="black" stroke="black" points="202.73,-163.28 193.98,-157.3 197.09,-167.43 202.73,-163.28"/>
</g>
<!-- 8 -->
<g id="node9" class="node">
<title>8</title>
<polygon fill="#f6d3ba" stroke="black" points="411,-149.5 268,-149.5 268,-96.5 411,-96.5 411,-149.5"/>
<text text-anchor="middle" x="339.5" y="-134.3" font-family="Helvetica,sans-Serif" font-size="14.00">squared_error = 0.22</text>
<text text-anchor="middle" x="339.5" y="-119.3" font-family="Helvetica,sans-Serif" font-size="14.00">samples = 52</text>
<text text-anchor="middle" x="339.5" y="-104.3" font-family="Helvetica,sans-Serif" font-size="14.00">value = 0.327</text>
</g>
<!-- 4&#45;&gt;8 -->
<g id="edge8" class="edge">
<title>4&#45;&gt;8</title>
<path fill="none" stroke="black" d="M275.34,-192.88C286.1,-181.34 298.16,-168.39 308.89,-156.86"/>
<polygon fill="black" stroke="black" points="311.48,-159.22 315.73,-149.52 306.35,-154.45 311.48,-159.22"/>
</g>
<!-- 6 -->
<g id="node7" class="node">
<title>6</title>
<polygon fill="#fef9f6" stroke="black" points="161,-53 10,-53 10,0 161,0 161,-53"/>
<text text-anchor="middle" x="85.5" y="-37.8" font-family="Helvetica,sans-Serif" font-size="14.00">squared_error = 0.059</text>
<text text-anchor="middle" x="85.5" y="-22.8" font-family="Helvetica,sans-Serif" font-size="14.00">samples = 64</text>
<text text-anchor="middle" x="85.5" y="-7.8" font-family="Helvetica,sans-Serif" font-size="14.00">value = 0.062</text>
</g>
<!-- 5&#45;&gt;6 -->
<g id="edge6" class="edge">
<title>5&#45;&gt;6</title>
<path fill="none" stroke="black" d="M140.12,-88.95C131.99,-79.8 123.16,-69.87 115.02,-60.71"/>
<polygon fill="black" stroke="black" points="117.64,-58.39 108.38,-53.24 112.4,-63.04 117.64,-58.39"/>
</g>
<!-- 7 -->
<g id="node8" class="node">
<title>7</title>
<polygon fill="#f9e4d5" stroke="black" points="330,-53 179,-53 179,0 330,0 330,-53"/>
<text text-anchor="middle" x="254.5" y="-37.8" font-family="Helvetica,sans-Serif" font-size="14.00">squared_error = 0.164</text>
<text text-anchor="middle" x="254.5" y="-22.8" font-family="Helvetica,sans-Serif" font-size="14.00">samples = 53</text>
<text text-anchor="middle" x="254.5" y="-7.8" font-family="Helvetica,sans-Serif" font-size="14.00">value = 0.208</text>
</g>
<!-- 5&#45;&gt;7 -->
<g id="edge7" class="edge">
<title>5&#45;&gt;7</title>
<path fill="none" stroke="black" d="M199.23,-88.95C207.46,-79.8 216.39,-69.87 224.63,-60.71"/>
<polygon fill="black" stroke="black" points="227.27,-63.01 231.35,-53.24 222.06,-58.33 227.27,-63.01"/>
</g>
<!-- 10 -->
<g id="node11" class="node">
<title>10</title>
<polygon fill="#f9e3d3" stroke="black" points="497,-253.5 346,-253.5 346,-200.5 497,-200.5 497,-253.5"/>
<text text-anchor="middle" x="421.5" y="-238.3" font-family="Helvetica,sans-Serif" font-size="14.00">squared_error = 0.169</text>
<text text-anchor="middle" x="421.5" y="-223.3" font-family="Helvetica,sans-Serif" font-size="14.00">samples = 65</text>
<text text-anchor="middle" x="421.5" y="-208.3" font-family="Helvetica,sans-Serif" font-size="14.00">value = 0.215</text>
</g>
<!-- 9&#45;&gt;10 -->
<g id="edge10" class="edge">
<title>9&#45;&gt;10</title>
<path fill="none" stroke="black" d="M424.2,-296.88C423.78,-286.22 423.32,-274.35 422.89,-263.52"/>
<polygon fill="black" stroke="black" points="426.39,-263.38 422.5,-253.52 419.4,-263.65 426.39,-263.38"/>
</g>
<!-- 11 -->
<g id="node12" class="node">
<title>11</title>
<polygon fill="#f0b68d" stroke="black" points="697.5,-261 515.5,-261 515.5,-193 697.5,-193 697.5,-261"/>
<text text-anchor="middle" x="606.5" y="-245.8" font-family="Helvetica,sans-Serif" font-size="14.00"> Body mass index &lt;= 32.45</text>
<text text-anchor="middle" x="606.5" y="-230.8" font-family="Helvetica,sans-Serif" font-size="14.00">squared_error = 0.249</text>
<text text-anchor="middle" x="606.5" y="-215.8" font-family="Helvetica,sans-Serif" font-size="14.00">samples = 118</text>
<text text-anchor="middle" x="606.5" y="-200.8" font-family="Helvetica,sans-Serif" font-size="14.00">value = 0.525</text>
</g>
<!-- 9&#45;&gt;11 -->
<g id="edge11" class="edge">
<title>9&#45;&gt;11</title>
<path fill="none" stroke="black" d="M484.27,-296.88C501.58,-287.12 520.67,-276.37 538.52,-266.31"/>
<polygon fill="black" stroke="black" points="540.73,-269.08 547.72,-261.12 537.29,-262.99 540.73,-269.08"/>
</g>
<!-- 12 -->
<g id="node13" class="node">
<title>12</title>
<polygon fill="#f3c5a3" stroke="black" points="589,-149.5 438,-149.5 438,-96.5 589,-96.5 589,-149.5"/>
<text text-anchor="middle" x="513.5" y="-134.3" font-family="Helvetica,sans-Serif" font-size="14.00">squared_error = 0.245</text>
<text text-anchor="middle" x="513.5" y="-119.3" font-family="Helvetica,sans-Serif" font-size="14.00">samples = 54</text>
<text text-anchor="middle" x="513.5" y="-104.3" font-family="Helvetica,sans-Serif" font-size="14.00">value = 0.426</text>
</g>
<!-- 11&#45;&gt;12 -->
<g id="edge12" class="edge">
<title>11&#45;&gt;12</title>
<path fill="none" stroke="black" d="M576.31,-192.88C565.88,-181.45 554.2,-168.63 543.76,-157.19"/>
<polygon fill="black" stroke="black" points="546.09,-154.55 536.77,-149.52 540.92,-159.27 546.09,-154.55"/>
</g>
<!-- 13 -->
<g id="node14" class="node">
<title>13</title>
<polygon fill="#edaa7a" stroke="black" points="758,-149.5 607,-149.5 607,-96.5 758,-96.5 758,-149.5"/>
<text text-anchor="middle" x="682.5" y="-134.3" font-family="Helvetica,sans-Serif" font-size="14.00">squared_error = 0.238</text>
<text text-anchor="middle" x="682.5" y="-119.3" font-family="Helvetica,sans-Serif" font-size="14.00">samples = 64</text>
<text text-anchor="middle" x="682.5" y="-104.3" font-family="Helvetica,sans-Serif" font-size="14.00">value = 0.609</text>
</g>
<!-- 11&#45;&gt;13 -->
<g id="edge13" class="edge">
<title>11&#45;&gt;13</title>
<path fill="none" stroke="black" d="M631.18,-192.88C639.53,-181.67 648.88,-169.13 657.28,-157.85"/>
<polygon fill="black" stroke="black" points="660.32,-159.63 663.49,-149.52 654.7,-155.45 660.32,-159.63"/>
</g>
<!-- 15 -->
<g id="node16" class="node">
<title>15</title>
<polygon fill="#eeaa7a" stroke="black" points="670,-357.5 519,-357.5 519,-304.5 670,-304.5 670,-357.5"/>
<text text-anchor="middle" x="594.5" y="-342.3" font-family="Helvetica,sans-Serif" font-size="14.00">squared_error = 0.238</text>
<text text-anchor="middle" x="594.5" y="-327.3" font-family="Helvetica,sans-Serif" font-size="14.00">samples = 74</text>
<text text-anchor="middle" x="594.5" y="-312.3" font-family="Helvetica,sans-Serif" font-size="14.00">value = 0.608</text>
</g>
<!-- 14&#45;&gt;15 -->
<g id="edge15" class="edge">
<title>14&#45;&gt;15</title>
<path fill="none" stroke="black" d="M594.5,-400.88C594.5,-390.33 594.5,-378.6 594.5,-367.85"/>
<polygon fill="black" stroke="black" points="598,-367.52 594.5,-357.52 591,-367.52 598,-367.52"/>
</g>
<!-- 16 -->
<g id="node17" class="node">
<title>16</title>
<polygon fill="#e58139" stroke="black" points="839,-357.5 688,-357.5 688,-304.5 839,-304.5 839,-357.5"/>
<text text-anchor="middle" x="763.5" y="-342.3" font-family="Helvetica,sans-Serif" font-size="14.00">squared_error = 0.094</text>
<text text-anchor="middle" x="763.5" y="-327.3" font-family="Helvetica,sans-Serif" font-size="14.00">samples = 57</text>
<text text-anchor="middle" x="763.5" y="-312.3" font-family="Helvetica,sans-Serif" font-size="14.00">value = 0.895</text>
</g>
<!-- 14&#45;&gt;16 -->
<g id="edge16" class="edge">
<title>14&#45;&gt;16</title>
<path fill="none" stroke="black" d="M649.37,-400.88C669.69,-388.62 692.62,-374.78 712.57,-362.74"/>
<polygon fill="black" stroke="black" points="714.46,-365.68 721.22,-357.52 710.85,-359.69 714.46,-365.68"/>
</g>
<!-- \n -->
<g id="node18" class="node">
<title>\n</title>
<polygon fill="black" stroke="black" points="653.5,-557 599.5,-557 599.5,-521 653.5,-521 653.5,-557"/>
</g>
</g>
</svg>
